<mxfile host="app.diagrams.net" modified="2023-10-30T04:49:07.566Z" agent="Mozilla/5.0 (Macintosh; Intel Mac OS X 10_15_7) AppleWebKit/537.36 (KHTML, like Gecko) Chrome/114.0.0.0 Safari/537.36" etag="DVOKDa-myHs8t3ybaOcx" version="22.0.8" type="github">
  <diagram name="第 1 页" id="x-0y6aBZuMKjTnQbn9td">
    <mxGraphModel dx="1191" dy="668" grid="1" gridSize="10" guides="1" tooltips="1" connect="1" arrows="1" fold="1" page="1" pageScale="1" pageWidth="1920" pageHeight="1200" math="1" shadow="0">
      <root>
        <mxCell id="0" />
        <mxCell id="1" parent="0" />
        <mxCell id="-ASr8rkIbX9cs4-Uspwm-59" value="&lt;span style=&quot;font-size: 32px;&quot;&gt;$$X$$&lt;/span&gt;" style="whiteSpace=wrap;html=1;aspect=fixed;fontStyle=1;fillColor=#3f2121;fillStyle=dashed;" vertex="1" parent="1">
          <mxGeometry x="460" y="770" width="80" height="80" as="geometry" />
        </mxCell>
      </root>
    </mxGraphModel>
  </diagram>
</mxfile>
